<svg id="Capa_1" enable-background="new 0 0 512 512" height="512" viewBox="0 0 512 512" width="512" xmlns="http://www.w3.org/2000/svg"><g><g><path clip-rule="evenodd" d="m78.647 302.202c8.965 5.84 20.383.613 20.587-11.885v-22.924h53.731v200.859c0 1.707 1.384 3.091 3.091 3.091h65.592v-238.38c0-12.705-10.395-23.099-23.099-23.099h-99.314v-22.924c-.204-12.499-11.622-17.726-20.587-11.885l-71.223 52.272c-9.899 5.957-9.899 16.616 0 22.603z" fill="#ffd772" fill-rule="evenodd"/></g><g><path clip-rule="evenodd" d="m221.648 133.791v99.172l-24.062 124.256 24.062 114.123h68.682l19.711-95.258-19.711-72.656v-169.637h14.163c11.739-.234 16.645-10.922 11.155-19.332l-49.059-66.815c-5.578-9.316-15.594-9.316-21.2 0l-49.059 66.815c-5.461 8.41-.584 19.098 11.155 19.332z" fill="#eb5468" fill-rule="evenodd"/></g><g><path clip-rule="evenodd" d="m313.429 280.329c-12.704 0-23.099 10.394-23.099 23.099v167.915h65.592c1.707 0 3.091-1.384 3.091-3.091v-130.423h53.731v22.953c.234 12.499 11.622 17.726 20.587 11.885l71.223-52.302c4.935-2.949 7.417-7.096 7.446-11.243 0-.029 0-.058 0-.088-.029-4.147-2.511-8.264-7.446-11.243l-71.223-52.272c-8.965-5.84-20.354-.642-20.587 11.856v22.953h-99.315z" fill="#b1e4f9" fill-rule="evenodd"/></g><g><path clip-rule="evenodd" d="m343.302 314.876c-21.609 0-18.631 12.207-18.631 33.349v123.117h31.251c1.707 0 3.091-1.384 3.091-3.091v-130.422h53.731v22.953c.234 12.499 11.622 17.726 20.587 11.885l71.223-52.302c4.935-2.949 7.417-7.096 7.446-11.243 0-.029 0-.058 0-.088-.029-4.147-2.511-8.264-7.446-11.243l-1.489-1.11-60.739 45.673c-8.965 5.84-16.236 4.994-16.47-7.505 0-19.536-11.943-19.974-29.523-19.974h-53.031z" fill="#75cef8" fill-rule="evenodd"/></g><g><path clip-rule="evenodd" d="m242.235 51.937 39.831 53.119c5.49 8.41 6.658 15.302-5.081 15.507-14.601 0-14.163 3.008-14.163 16.383v166.483 167.914h27.508v-167.915-169.637h14.163c11.739-.234 16.645-10.922 11.155-19.332l-49.059-66.815c-5.578-9.316-15.594-9.316-21.2 0z" fill="#e5384f" fill-rule="evenodd"/></g><g><path clip-rule="evenodd" d="m77.771 233.343h103.286c12.703 0 12.79 6.279 12.79 18.982v219.018h27.8v-238.38c0-12.703-10.396-23.099-23.099-23.099h-99.313v-22.924c-.204-12.499-11.622-17.726-20.587-11.885l-27.8 20.413c8.965-5.84 20.354-.613 20.587 11.885v20.237c0 7.096-.964 5.753 6.336 5.753z" fill="#fbba58" fill-rule="evenodd"/></g></g></svg>