<svg id="Capa_1" enable-background="new 0 0 512 512" height="512" viewBox="0 0 512 512" width="512" xmlns="http://www.w3.org/2000/svg"><g><path d="m512 256c0 141.38-114.62 256-256 256-87.94 0-165.52-44.34-211.61-111.89-11.69-17.13 9.298-64.451 2.008-84.221-4.49-12.18-38.738 3.912-41.348-9.058-3.31-16.431-5.05-33.431-5.05-50.831 0-141.38 114.62-256 256-256s256 114.62 256 256z" fill="#80b4fb"/><g><path d="m175.84 240.03-26.73 35.97-25.24 33.97-53.36 71.81c-6.82 9.18-16.07 15.33-26.12 18.33-18.89-27.68-32.49-59.26-39.34-93.28l66.36-49.32 33.97-25.24 35.97-26.73z" fill="#9d6b6b"/><path d="m153.51 217.7s-134.99 123.95-137.76 126.89c-4.49-12.18-8.09-24.79-10.7-37.76l136.31-101.28z" fill="#8b5e5e"/><path d="m183.898 270.035-72.543-72.543c-17.413-17.413-17.413-45.646 0-63.059l41.192-41.192c17.413-17.413 45.646-17.413 63.059 0l72.543 72.543c17.413 17.413 17.413 45.646 0 63.059l-41.191 41.192c-17.415 17.413-45.647 17.413-63.06 0z" fill="#f5dd62"/><path d="m281.722 235.274-34.761 34.761c-17.419 17.419-45.651 17.413-63.064 0l-72.545-72.545c-17.413-17.413-17.413-45.639.006-63.058l34.761-34.761c-17.413 17.413-17.413 45.639 0 63.052l72.545 72.545c17.413 17.413 45.645 17.419 63.058.006z" fill="#eebe61"/><path d="m187.995 46.82c-8.225-8.225-21.56-8.225-29.785 0l-2.861 2.861c9.805-9.805 9.805-25.702 0-35.506l-6.82-6.82c-9.805-9.805-25.702-9.805-35.506 0l-84.419 84.417c-9.805 9.805-9.805 25.702 0 35.506l6.82 6.82c9.805 9.805 25.702 9.805 35.506 0l-2.861 2.861c-8.225 8.225-8.225 21.56 0 29.785 8.225 8.225 21.56 8.225 29.785 0l90.14-90.14c8.226-8.224 8.226-21.559.001-29.784z" fill="#9d6b6b"/><path d="m108.827 125.982c-8.226-8.226-8.226-21.555 0-29.782l2.864-2.864c-9.805 9.805-25.704 9.805-35.509 0l-6.818-6.818c-9.806-9.806-9.806-25.704 0-35.509l-40.76 40.76c-9.805 9.805-9.805 25.704 0 35.509l6.818 6.818c9.805 9.805 25.704 9.805 35.509 0l-2.864 2.864c-8.22 8.22-8.226 21.555 0 29.782s21.567 8.226 29.788.006l40.76-40.76c-8.227 8.226-21.562 8.22-29.788-.006z" fill="#8b5e5e"/><path d="m336.747 195.571c8.225 8.225 8.225 21.56 0 29.785l-2.861 2.861c9.805-9.805 25.702-9.805 35.506 0l6.82 6.82c9.805 9.805 9.805 25.702 0 35.506l-84.419 84.419c-9.805 9.805-25.702 9.805-35.506 0l-6.82-6.82c-9.805-9.805-9.805-25.702 0-35.506l-2.861 2.861c-8.225 8.225-21.56 8.225-29.785 0-8.225-8.225-8.225-21.56 0-29.785l90.14-90.14c8.225-8.226 21.561-8.226 29.786-.001z" fill="#9d6b6b"/><path d="m257.584 274.739c8.226 8.226 21.555 8.226 29.782 0l2.864-2.864c-9.805 9.805-9.805 25.704 0 35.509l6.818 6.818c9.806 9.806 25.704 9.806 35.509 0l-40.76 40.76c-9.805 9.805-25.704 9.805-35.509 0l-6.818-6.818c-9.805-9.805-9.805-25.704 0-35.509l-2.864 2.864c-8.22 8.22-21.555 8.226-29.782 0s-8.226-21.567-.006-29.788l40.76-40.76c-8.226 8.227-8.22 21.562.006 29.788z" fill="#8b5e5e"/><path d="m123.875 309.975c-.878-.63-1.715-1.349-2.504-2.139l-47.813-47.813c-.79-.79-1.509-1.626-2.145-2.51l33.971-25.238 43.73 43.73z" fill="#8b5e5e"/><path d="m127.641 301.562-47.813-47.813c-8.225-8.225-8.225-21.56 0-29.785 8.225-8.225 21.56-8.225 29.785 0l47.813 47.813c8.225 8.225 8.225 21.56 0 29.785-8.225 8.225-21.56 8.225-29.785 0z" fill="#9d6b6b"/><path d="m105.296 279.225-25.474-25.474c-8.226-8.226-8.22-21.561.006-29.788 4.113-4.113 9.499-6.164 14.891-6.17 5.386 0 10.778 2.056 14.891 6.17l25.474 25.474c-4.113-4.113-9.505-6.17-14.891-6.17-5.392.006-10.778 2.056-14.891 6.17-8.227 8.227-8.233 21.562-.006 29.788z" fill="#8b5e5e"/></g><path d="m436.76 425.493h-179.004c-11.02 0-19.953-8.933-19.953-19.953 0-11.02 8.933-19.953 19.953-19.953h179.004c11.02 0 19.953 8.933 19.953 19.953-.001 11.019-8.934 19.953-19.953 19.953z" fill="#f5dd62"/><path d="m320.467 425.486h-62.709c-11.023 0-19.954-8.932-19.954-19.946 0-5.512 2.237-10.5 5.846-14.109s8.597-5.846 14.109-5.846h62.709c-5.511 0-10.5 2.237-14.109 5.846s-5.846 8.597-5.846 14.109c-.001 11.014 8.931 19.946 19.954 19.946z" fill="#eebe61"/><path d="m451.676 442.144h-208.836c-12.856 0-23.278-10.422-23.278-23.278 0-12.856 10.422-23.278 23.278-23.278h208.836c12.856 0 23.278 10.422 23.278 23.278-.001 12.856-10.422 23.278-23.278 23.278z" fill="#9d6b6b"/><path d="m474.946 418.874c0 6.43-2.6 12.24-6.82 16.45-4.21 4.22-10.02 6.82-16.45 6.82h-208.84c-12.85 0-23.28-10.42-23.28-23.27 0-3.57.81-6.96 2.25-9.98 3.73 7.87 11.75 13.3 21.03 13.3h208.84c6.43 0 12.24-2.61 16.45-6.82 1.87-1.87 3.43-4.06 4.58-6.48 1.44 3.02 2.24 6.41 2.24 9.98z" fill="#8b5e5e"/><path d="m316.002 442.136h-73.16c-12.86 0-23.28-10.42-23.28-23.27 0-6.43 2.61-12.25 6.82-16.46s10.03-6.82 16.46-6.82h73.16c-6.43 0-12.25 2.61-16.46 6.82s-6.82 10.03-6.82 16.46c0 12.85 10.42 23.27 23.28 23.27z" fill="#8b5e5e"/><path d="m463.023 512h-231.531c-16.48 0-29.841-13.36-29.841-29.841v-16.826c0-16.48 13.36-29.841 29.841-29.841h231.531c16.48 0 29.841 13.36 29.841 29.841v16.826c0 16.481-13.36 29.841-29.841 29.841z" fill="#9d6b6b"/><path d="m304.652 511.996h-73.16c-16.48 0-29.84-13.36-29.84-29.84v-16.83c0-16.48 13.36-29.84 29.84-29.84h73.16c-16.48 0-29.84 13.36-29.84 29.84v16.83c0 16.48 13.36 29.84 29.84 29.84z" fill="#8b5e5e"/><g fill="#faf7eb"><path d="m468.137 359.461-.43-1.782c-1.518-6.285 2.09-12.672 8.256-14.617l18.967-5.981c6.794-2.142 13.981 1.917 15.654 8.842l1.07 4.428c1.672 6.925-2.869 13.817-9.892 15.012l-19.606 3.335c-6.376 1.084-12.501-2.952-14.019-9.237z"/><path d="m445.768 322.414-1.264-1.328c-4.457-4.684-4.526-12.019-.158-16.786l13.435-14.664c4.812-5.252 13.067-5.33 17.977-.17l3.14 3.3c4.911 5.161 4.424 13.401-1.061 17.947l-15.312 12.692c-4.977 4.126-12.3 3.693-16.757-.991z"/><path d="m410.383 296.93-1.758-.518c-6.202-1.828-9.93-8.146-8.53-14.458l4.304-19.417c1.541-6.955 8.651-11.149 15.484-9.136l4.37 1.288c6.833 2.014 10.531 9.394 8.055 16.073l-6.915 18.647c-2.25 6.063-8.808 9.349-15.01 7.521z"/></g></g></svg>