<svg height="512pt" viewBox="0 0 512.0015 512" width="512pt" xmlns="http://www.w3.org/2000/svg"><path d="m489.019531 378.144531-39.230469-39.234375c-25.976562-25.976562-65.199218-29.699218-94.917968-12.320312l-11.507813-11.507813c17.46875-30.011719 13.375-69.222656-12.308593-94.902343l-39.230469-39.234376c-25.976563-25.976562-65.199219-29.699218-94.917969-12.316406l-11.496094-11.5c17.34375-29.65625 13.703125-68.894531-12.320312-94.914062l-39.230469-39.234375c-30.640625-30.636719-80.234375-30.640625-110.878906 0-30.640625 30.644531-30.640625 80.234375 0 110.878906l39.234375 39.234375c25.976562 25.976562 65.195312 29.699219 94.914062 12.320312l11.511719 11.507813c-17.472656 30.007813-13.375 69.21875 12.304687 94.902344l39.234376 39.230469c25.976562 25.976562 65.195312 29.703124 94.914062 12.320312l11.496094 11.496094c-17.34375 29.660156-13.699219 68.894531 12.320312 94.917968l39.234375 39.230469c30.636719 30.640625 80.230469 30.644531 110.875 0 30.640625-30.640625 30.644531-80.230469 0-110.875zm-334.035156-251.441406-9.714844-9.714844c-7.808593-7.808593-20.472656-7.808593-28.28125 0-7.8125 7.808594-7.808593 20.472657 0 28.28125l9.714844 9.71875c-12.605469 3.03125-26.359375-.328125-36.203125-10.175781l-39.234375-39.234375c-15.007813-15.007813-15.011719-39.300781 0-54.3125 15.007813-15.007813 39.300781-15.011719 54.3125 0l39.234375 39.234375c9.835938 9.835938 13.207031 23.589844 10.171875 36.203125zm157.949219 157.949219-9.699219-9.699219c-7.8125-7.8125-20.472656-7.8125-28.285156 0-7.808594 7.808594-7.808594 20.472656 0 28.28125l9.71875 9.71875c-12.605469 3.03125-26.359375-.332031-36.207031-10.175781l-39.230469-39.234375c-9.796875-9.796875-13.183594-23.613281-10.160157-36.1875l9.699219 9.699219c7.808594 7.808593 20.472657 7.808593 28.285157 0 7.808593-7.8125 7.808593-20.472657 0-28.285157l-9.71875-9.714843c12.605468-3.03125 26.359374.328124 36.207031 10.175781l39.230469 39.230469c9.796874 9.796874 13.183593 23.613281 10.160156 36.191406zm147.804687 176.085937c-15.007812 15.007813-39.300781 15.011719-54.3125 0l-39.234375-39.234375c-9.835937-9.835937-13.207031-23.589844-10.175781-36.203125l9.71875 9.714844c7.808594 7.8125 20.472656 7.8125 28.28125 0 7.808594-7.808594 7.808594-20.472656 0-28.28125l-9.71875-9.71875c12.609375-3.03125 26.359375.332031 36.207031 10.175781l39.234375 39.234375c15.007813 15.007813 15.011719 39.300781 0 54.3125zm0 0"/></svg>