<svg id="Layer_1" enable-background="new 0 0 512 512" height="512" viewBox="0 0 512 512" width="512" xmlns="http://www.w3.org/2000/svg"><g><g><g id="XMLID_415_"><g id="XMLID_416_"><g id="XMLID_417_"><g id="XMLID_418_"><g id="XMLID_419_"><g id="XMLID_420_"><g id="XMLID_421_"><g id="XMLID_422_"><g id="XMLID_423_"><g id="XMLID_424_"><g id="XMLID_425_"><g id="XMLID_457_"><g id="XMLID_458_"><g id="XMLID_459_"><circle id="XMLID_460_" cx="256" cy="256" fill="#f9764e" r="256"/></g></g></g></g></g></g></g></g></g></g></g></g></g></g></g><path d="m479.793 131.633-68.87-68.87s-46.452 29.852-58.675 29.852l-29.852-29.852s-46.769 29.535-58.992 29.535l-29.535-29.535s-34.761 36.04-46.984 36.04l-41.544-36.04-44.264 35.869 29.944 29.943c0 12.223-29.944 58.584-29.944 58.584l25.685 25.685c0 12.223-25.685 62.843-25.685 62.843l34.706 34.706c0 12.223-34.706 53.821-34.706 53.821l33.662 33.662c0 12.223-33.662 46.47-33.662 46.47l40.903 40.903c34.337 17.11 73.05 26.751 114.02 26.751 141.385 0 256-114.615 256-256 0-45.141-11.699-87.543-32.207-124.367z" fill="#e84d2a"/><g><g><path d="m388.791 209.29c0-12.223 9.909-22.132 22.132-22.132v-44.264c-12.223 0-22.132-9.909-22.132-22.132s9.909-22.132 22.132-22.132v-35.867h-44.264c0 12.223-9.909 22.132-22.132 22.132s-22.132-9.909-22.132-22.132h-44.264c0 12.223-9.909 22.132-22.132 22.132s-22.132-9.909-22.132-22.132h-44.264c0 12.223-9.909 22.132-22.132 22.132s-22.132-9.909-22.132-22.132h-44.264v35.869c12.223 0 22.132 9.909 22.132 22.132s-9.909 22.132-22.132 22.132v44.264c12.223 0 22.132 9.909 22.132 22.132s-9.909 22.132-22.132 22.132v44.264c12.223 0 22.132 9.909 22.132 22.132s-9.909 22.132-22.132 22.132v44.264c12.223 0 22.132 9.909 22.132 22.132s-9.909 22.132-22.132 22.132v35.869h44.264c0-12.223 9.909-22.132 22.132-22.132s22.132 9.909 22.132 22.132h44.264c0-12.223 9.909-22.132 22.132-22.132s22.132 9.909 22.132 22.132h44.264c0-12.223 9.909-22.132 22.132-22.132s22.132 9.909 22.132 22.132h44.264v-35.869c-12.223 0-22.132-9.909-22.132-22.132s9.909-22.132 22.132-22.132v-44.264c-12.223 0-22.132-9.909-22.132-22.132s9.909-22.132 22.132-22.132v-44.264c-12.223-.002-22.132-9.91-22.132-22.134z" fill="#f7f4f0"/></g><g><g><path d="m388.79 120.76c0 12.23 9.91 22.14 22.13 22.14v44.26c-12.22 0-22.13 9.91-22.13 22.13s9.91 22.13 22.13 22.13v44.27c-12.22 0-22.13 9.9-22.13 22.13 0 12.22 9.91 22.13 22.13 22.13v44.26c-12.22 0-22.13 9.91-22.13 22.13 0 12.23 9.91 22.14 22.13 22.14v35.87h-44.26c0-12.23-9.91-22.14-22.13-22.14-12.23 0-22.13 9.91-22.13 22.14h-44.27c0-12.23-9.91-22.14-22.13-22.14v-337.32c12.22 0 22.13-9.9 22.13-22.13h44.27c0 12.23 9.9 22.13 22.13 22.13 12.22 0 22.13-9.9 22.13-22.13h44.26v35.87c-12.22 0-22.13 9.91-22.13 22.13z" fill="#d4cdc1"/></g></g><path d="m159.579 121.615h192.843v263.878h-192.843z" fill="#5dcdf7"/><path d="m256 121.61h96.42v263.88h-96.42z" fill="#31a8dd"/><ellipse cx="223.591" cy="208.066" fill="#fcd144" rx="32.409" ry="32.409" transform="matrix(.924 -.383 .383 .924 -62.603 101.403)"/><path d="m352.422 303.63v81.863h-162.326l118.218-166.519z" fill="#4b3b4c"/><g><path d="m303.455 385.493h-143.876v-86.067l57.112-80.452z" fill="#7a6c7a"/></g><g><g><g><path d="m303.45 385.49h-47.45v-91.07z" fill="#655665"/></g></g></g></g></g></svg>