<svg height="512" viewBox="0 0 256 256" width="512" xmlns="http://www.w3.org/2000/svg"><path d="m110.322 57.287-8.6-14.281a9.274 9.274 0 0 0 -7.945-4.49h-52.438a9.276 9.276 0 0 0 -9.275 9.275v133.909a9.276 9.276 0 0 0 9.275 9.275h173.322a9.276 9.276 0 0 0 9.275-9.275v-108.4a9.275 9.275 0 0 0 -9.275-9.274h-92.422a13.913 13.913 0 0 1 -11.917-6.739z" fill="#f79219"/><rect fill="#d1d3d4" height="126.948" rx="9.275" width="191.871" x="32.064" y="64.022"/><rect fill="#f1f2f2" height="126.948" rx="9.275" width="191.871" x="32.064" y="77.462"/><rect fill="#ffa91a" height="126.948" rx="9.275" width="191.871" x="32.064" y="90.536"/><path d="m214.661 90.536h-10.726v107.673a9.274 9.274 0 0 1 -9.274 9.275h-162.596v.725a9.274 9.274 0 0 0 9.274 9.275h173.322a9.274 9.274 0 0 0 9.274-9.275v-108.398a9.274 9.274 0 0 0 -9.274-9.275z" fill="#f79219"/><path d="m162.188 166.682-37.621 12.965a5.426 5.426 0 0 1 -6.9-6.9l12.965-37.621 27.717 3.837z" fill="#8c3f0a"/><circle cx="183.901" cy="113.415" fill="#8c3f0a" r="64.92"/><path d="m124.98 115.42a2.006 2.006 0 0 1 -2-2v-.02a2 2 0 1 1 2 2.02zm.54-7.98a1.229 1.229 0 0 1 -.27-.02 1.946 1.946 0 0 1 -1.32-.77 1.919 1.919 0 0 1 -.39-1.48 60.982 60.982 0 0 1 60.36-52.67 2 2 0 1 1 0 3.99h-.009a57.094 57.094 0 0 0 -56.39 49.22 2 2 0 0 1 -1.981 1.73z" fill="#995222"/><path d="m224.535 62.781a64.923 64.923 0 0 1 -91.268 91.268 64.922 64.922 0 1 0 91.268-91.268z" fill="#7c3108"/><path d="m227.239 65.077a64.921 64.921 0 0 1 -91.676 91.676 64.921 64.921 0 1 0 91.676-91.676z" fill="#6d2e03"/><path d="m181.932 108.145a2.207 2.207 0 0 1 -2.14 2.141c-3.834.113-12.265-.29-17.417-5.443s-5.556-13.583-5.443-17.417a2.209 2.209 0 0 1 2.14-2.141c3.835-.113 12.265.29 17.418 5.443s5.556 13.583 5.442 17.417z" fill="#f79219"/><path d="m176.49 90.728a15 15 0 0 0 -2.5-2c3.258 5.067 3.537 11.654 3.441 14.916a2.207 2.207 0 0 1 -2.141 2.14c-3.261.1-9.849-.183-14.915-3.441a14.951 14.951 0 0 0 2 2.5c5.152 5.153 13.583 5.556 17.417 5.443a2.207 2.207 0 0 0 2.14-2.141c.114-3.834-.29-12.264-5.442-17.417z" fill="#ef7816"/><path d="m210.87 137.083a2.207 2.207 0 0 1 -2.14 2.14c-3.835.113-12.265-.29-17.418-5.442s-5.555-13.584-5.442-17.418a2.206 2.206 0 0 1 2.14-2.14c3.834-.113 12.265.29 17.417 5.443s5.556 13.583 5.443 17.417z" fill="#f79219"/><path d="m205.427 119.666a14.894 14.894 0 0 0 -2.5-2c3.257 5.066 3.537 11.653 3.44 14.915a2.207 2.207 0 0 1 -2.14 2.141c-3.262.1-9.849-.184-14.916-3.441a15.043 15.043 0 0 0 2 2.5c5.153 5.152 13.583 5.555 17.418 5.442a2.207 2.207 0 0 0 2.14-2.14c.114-3.834-.289-12.265-5.442-17.417z" fill="#ef7816"/><path d="m188.01 110.286a2.207 2.207 0 0 1 -2.14-2.141c-.113-3.834.29-12.264 5.442-17.417s13.583-5.556 17.418-5.443a2.209 2.209 0 0 1 2.14 2.141c.113 3.834-.29 12.264-5.443 17.417s-13.583 5.557-17.417 5.443z" fill="#f79219"/><path d="m210.87 87.426a2.209 2.209 0 0 0 -2.14-2.141c-.666-.019-1.473-.022-2.375.011-.16 4.292-1.173 10.785-5.431 15.043s-10.752 5.272-15.043 5.432c-.034.9-.031 1.709-.011 2.374a2.207 2.207 0 0 0 2.14 2.141c3.834.113 12.265-.29 17.417-5.443s5.556-13.583 5.443-17.417z" fill="#ef7816"/><path d="m159.072 139.223a2.207 2.207 0 0 1 -2.14-2.14c-.113-3.834.29-12.265 5.443-17.417s13.583-5.556 17.417-5.443a2.206 2.206 0 0 1 2.14 2.14c.114 3.834-.29 12.265-5.442 17.418s-13.583 5.555-17.418 5.442z" fill="#f79219"/><path d="m181.932 116.363a2.206 2.206 0 0 0 -2.14-2.14c-.666-.02-1.472-.023-2.374.011-.16 4.291-1.174 10.785-5.432 15.043s-10.752 5.272-15.043 5.432c-.034.9-.03 1.708-.011 2.374a2.207 2.207 0 0 0 2.14 2.14c3.835.113 12.265-.29 17.418-5.442s5.556-13.581 5.442-17.418z" fill="#ef7816"/><path d="m205.78 111.025a1.794 1.794 0 0 0 0 2.459c2.138 2.268 7.214 6.881 13.136 6.881s11-4.613 13.135-6.881a1.792 1.792 0 0 0 0-2.459c-2.138-2.269-7.214-6.881-13.135-6.881s-10.998 4.612-13.136 6.881z" fill="#ffa91a"/><path d="m232.051 111.025a28.253 28.253 0 0 0 -4.04-3.545 1.79 1.79 0 0 1 -.463 1.5c-2.139 2.269-7.214 6.881-13.136 6.881a16.032 16.032 0 0 1 -9.095-3.337 1.783 1.783 0 0 0 .463.96c2.138 2.268 7.214 6.881 13.136 6.881s11-4.613 13.135-6.881a1.792 1.792 0 0 0 0-2.459z" fill="#f79219"/><path d="m162.022 113.484a1.794 1.794 0 0 0 0-2.459c-2.138-2.269-7.214-6.881-13.136-6.881s-11 4.612-13.135 6.881a1.792 1.792 0 0 0 0 2.459c2.138 2.268 7.214 6.881 13.135 6.881s10.998-4.613 13.136-6.881z" fill="#ffa91a"/><path d="m162.022 111.025a28.27 28.27 0 0 0 -4.041-3.545 1.787 1.787 0 0 1 -.463 1.5c-2.138 2.269-7.214 6.881-13.135 6.881a16.032 16.032 0 0 1 -9.095-3.337 1.776 1.776 0 0 0 .463.96c2.138 2.268 7.214 6.881 13.135 6.881s11-4.613 13.136-6.881a1.794 1.794 0 0 0 0-2.459z" fill="#f79219"/><path d="m185.131 134.969a1.793 1.793 0 0 0 -2.46 0c-2.268 2.138-6.88 7.214-6.88 13.135s4.612 11 6.88 13.136a1.8 1.8 0 0 0 2.46 0c2.268-2.138 6.881-7.214 6.881-13.136s-4.612-10.997-6.881-13.135z" fill="#ffa91a"/><path d="m185.131 134.969a1.78 1.78 0 0 0 -.96-.463 16.032 16.032 0 0 1 3.337 9.095c0 5.921-4.613 11-6.881 13.135a1.787 1.787 0 0 1 -1.5.463 28.273 28.273 0 0 0 3.544 4.041 1.8 1.8 0 0 0 2.46 0c2.268-2.138 6.881-7.214 6.881-13.136s-4.612-10.997-6.881-13.135z" fill="#f79219"/><path d="m185.131 89.54a1.8 1.8 0 0 1 -2.46 0c-2.268-2.139-6.88-7.214-6.88-13.136s4.612-11 6.88-13.135a1.793 1.793 0 0 1 2.46 0c2.268 2.138 6.881 7.214 6.881 13.135s-4.612 10.996-6.881 13.136z" fill="#ffa91a"/><path d="m185.131 63.269a1.78 1.78 0 0 0 -.96-.463 16.032 16.032 0 0 1 3.337 9.095c0 5.921-4.613 11-6.881 13.135a1.787 1.787 0 0 1 -1.5.463 28.273 28.273 0 0 0 3.544 4.041 1.8 1.8 0 0 0 2.46 0c2.268-2.139 6.881-7.214 6.881-13.136s-4.612-10.997-6.881-13.135z" fill="#f79219"/></svg>