<?xml version="1.0" encoding="iso-8859-1"?>
<!-- Generator: Adobe Illustrator 19.0.0, SVG Export Plug-In . SVG Version: 6.00 Build 0)  -->
<svg version="1.1" id="Capa_1" xmlns="http://www.w3.org/2000/svg" xmlns:xlink="http://www.w3.org/1999/xlink" x="0px" y="0px"
	 viewBox="0 0 490 490" style="enable-background:new 0 0 490 490;" xml:space="preserve">
<g id="Business_1_Bold_16_">
	<path d="M338.564,35.65c-11.882-11.913-31.328-11.913-43.195,0l-6.324,6.339c-11.882,11.913-11.882,31.405,0,43.302l0.505,0.505
		c-9.509,6.14-23.917,15.527-39.811,26.245c-14.546-17.93-32.354-34.529-40.638-41.909c2.113-9.846-0.582-20.533-8.161-28.143
		l-6.324-6.339c-11.882-11.913-31.328-11.913-43.195,0L8.912,178.511c-11.882,11.913-11.882,31.405,0,43.303l6.324,6.339
		c9.233,9.248,22.983,11.224,34.253,6.094c5.91,8.314,20.916,29.093,39.964,53.179c-10.489,10.764-27.271,31.068-27.975,51.647
		c-0.337,10.167,3.231,19.339,10.32,26.49c21.957,22.187,87.6,87.815,87.6,87.815l1.96,1.654c0.873,0.612,12.005,8.253,30.042,8.253
		c14.868,0,34.437-5.328,56.762-23.917c4.655,3.384,7.671,5.497,8.33,5.941c2.205,1.363,17.67,10.489,34.85,10.489
		c5.512,0,11.208-0.949,16.705-3.399c7.334-3.277,16.43-10.274,21.529-25.204c12.801-4.593,28.434-14.883,34.973-33.794
		c14.715-3.583,30.364-13.827,35.815-33.671c14.102-1.945,30.302-9.738,36.151-30.578c4.364-15.618,0-29.032-6.844-39.337
		c10.244-11.162,23.55-29.797,26.168-52.995c6.906-0.597,13.658-3.399,18.926-8.682l6.324-6.339
		c11.882-11.913,11.882-31.405,0-43.303L338.564,35.65z M424.878,221.462c3.399,19.37-7.962,36.596-16.813,46.564l-82.302-77.356
		l-10.213,7.273c-20.824,14.792-47.605,1.807-47.819,1.715l-8.835-4.456l-7.717,6.155c-0.245,0.199-24.928,19.645-58.094,22.601
		c-2.664,0.245-4.946,0.322-6.921,0.322c-8.299,0-10.902-1.654-10.856-1.485c-0.75-2.71,2.404-13.153,13.429-26.49
		c12.495-15.098,80.005-60.835,122.94-88.32L424.878,221.462z M119.066,323.302l-22.172,24.101
		c-1.179-1.194-2.343-2.358-3.338-3.369c-1.164-1.179-1.546-2.174-1.485-3.92c0.245-7.671,8.559-19.523,16.874-28.695
		C112.283,315.401,115.652,319.351,119.066,323.302z M164.099,414.776c-3.231-3.246-6.768-6.768-10.535-10.55l21.743-23.642
		c3.782,3.399,7.534,6.707,11.254,9.922L164.099,414.776z M131.898,382.544c-4.548-4.548-9.034-9.065-13.368-13.398l21.146-22.999
		c2.971,3.139,5.956,6.217,8.911,9.187c1.439,1.455,2.925,2.863,4.379,4.303L131.898,382.544z M189.349,432.584l20.748-22.417
		c4.486,3.629,8.758,6.997,12.801,10.167C208.228,430.945,196.867,432.982,189.349,432.584z M407.024,320.883
		c-2.036,7.273-8.667,8.713-13.367,8.774l-85.411-81.246l-21.115,22.187l83.91,79.806c-1.991,8.712-8.024,12.066-13.551,13.26
		l-84.277-80.174l-21.115,22.187l82.915,78.872c-3.047,7.212-9.034,11.055-13.781,13.015l-83.022-78.979l-21.115,22.187
		l82.608,78.597c-0.995,2.22-2.327,4.18-4.15,5.007c-5.528,2.542-17.103-1.608-22.325-4.716
		c-0.551-0.398-56.823-39.75-102.973-86.008c-43.149-43.256-91.198-110.66-97.645-119.771L191.094,95.107
		c8.023,7.289,21.85,20.503,33.288,34.299c-25.847,18.114-50.407,36.642-59.258,47.345c-8.942,10.81-28.48,38.311-16.981,60.146
		c7.243,13.781,23.244,19.676,47.651,17.517c30.762-2.725,55.215-16.154,67.005-23.856c12.495,4.272,36.121,9.463,59.38-1.271
		l81.353,76.453C406.458,309.812,408.678,315.003,407.024,320.883z"/>
</g>
<g>
</g>
<g>
</g>
<g>
</g>
<g>
</g>
<g>
</g>
<g>
</g>
<g>
</g>
<g>
</g>
<g>
</g>
<g>
</g>
<g>
</g>
<g>
</g>
<g>
</g>
<g>
</g>
<g>
</g>
</svg>
