<svg height="512" viewBox="0 0 512 512" width="512" xmlns="http://www.w3.org/2000/svg" xmlns:xlink="http://www.w3.org/1999/xlink"><linearGradient id="New_Gradient_Swatch_2" gradientTransform="matrix(.707 .707 -.707 .707 197.101 -103.932)" gradientUnits="userSpaceOnUse" x1="224" x2="224" y1="66.081" y2="485.761"><stop offset="0" stop-color="#fc5c7d"/><stop offset=".129" stop-color="#f35e85"/><stop offset=".343" stop-color="#d9659b"/><stop offset=".616" stop-color="#b070bf"/><stop offset=".934" stop-color="#777ff0"/><stop offset="1" stop-color="#6a82fb"/></linearGradient><linearGradient id="New_Gradient_Swatch_2-2" gradientTransform="matrix(.707 .707 -.707 .707 219.712 -113.303)" x1="246.627" x2="246.627" xlink:href="#New_Gradient_Swatch_2" y1="66.081" y2="485.761"/><linearGradient id="New_Gradient_Swatch_2-3" gradientTransform="matrix(.707 .707 -.707 .707 174.472 -94.56)" x1="201.373" x2="201.373" xlink:href="#New_Gradient_Swatch_2" y1="66.081" y2="485.761"/><linearGradient id="New_Gradient_Swatch_2-4" x1="288" x2="288" xlink:href="#New_Gradient_Swatch_2" y1="66.081" y2="485.761"/><linearGradient id="New_Gradient_Swatch_2-5" x1="424" x2="424" xlink:href="#New_Gradient_Swatch_2" y1="66.081" y2="485.761"/><linearGradient id="New_Gradient_Swatch_2-6" x1="148" x2="148" xlink:href="#New_Gradient_Swatch_2" y1="66.081" y2="485.761"/><linearGradient id="New_Gradient_Swatch_2-7" x1="72" x2="72" xlink:href="#New_Gradient_Swatch_2" y1="66.081" y2="485.761"/><g id="GD001"><path d="m192 177.941h63.999v16h-63.999z" fill="url(#New_Gradient_Swatch_2)" transform="matrix(.707 -.707 .707 .707 -65.871 212.865)"/><path d="m230.627 200.568h32v16h-32z" fill="url(#New_Gradient_Swatch_2-2)" transform="matrix(.707 -.707 .707 .707 -75.245 235.477)"/><path d="m185.372 155.314h32v16h-32z" fill="url(#New_Gradient_Swatch_2-3)" transform="matrix(.707 -.707 .707 .707 -56.498 190.237)"/><path d="m432 312.581v-196.581a28 28 0 0 0 -56 0v96a12.013 12.013 0 0 1 -12 12h-12v-144a32.036 32.036 0 0 0 -32-32h-56v-24a8 8 0 0 0 -8-8h-64a8 8 0 0 0 -8 8v24h-56a32.036 32.036 0 0 0 -32 32v160h16v-160a16.019 16.019 0 0 1 16-16h192a16.019 16.019 0 0 1 16 16v240a16.019 16.019 0 0 1 -16 16h-192a16.019 16.019 0 0 1 -16-16h-16a32.05 32.05 0 0 0 20.625 29.9l-20.536 136.913a8 8 0 0 0 7.911 9.187h32a8 8 0 0 0 7.911-6.813l8.578-57.187h143.022l8.578 57.187a8 8 0 0 0 7.911 6.813h32a8 8 0 0 0 7.911-9.187l-20.536-136.913a32.05 32.05 0 0 0 20.625-29.9v-80h12a28.032 28.032 0 0 0 28-28v-96a12 12 0 0 1 24 0v196.581a56.078 56.078 0 0 0 -48 55.419v48a56 56 0 0 0 112 0v-48a56.078 56.078 0 0 0 -48-55.419zm-184-264.581h-48v-16h48zm-118.89 432h-15.821l19.2-128h15.821zm70.89-128h48v16h-48zm16 64h-61.111l9.6-64h19.511v24a8 8 0 0 0 8 8h24zm16 0v-32h24a8 8 0 0 0 8-8v-24h19.511l9.6 64zm102.711 64h-15.821l-19.2-128h15.821zm129.289-64a40 40 0 0 1 -80 0v-48a40 40 0 0 1 80 0z" fill="url(#New_Gradient_Swatch_2-4)"/><path d="m416 352h16v16h-16z" fill="url(#New_Gradient_Swatch_2-5)"/><path d="m229.657 301.657 13.657-13.657h12.686v-16h-12.686l-13.657-13.657a8 8 0 0 0 -5.657-2.343h-160a24 24 0 0 0 0 48h160a8 8 0 0 0 5.657-2.343zm-45.657-13.657h-120a8 8 0 0 1 0-16h120zm16 0v-16h20.687l8 8-8 8z" fill="url(#New_Gradient_Swatch_2-6)"/><g fill="url(#New_Gradient_Swatch_2-7)"><path d="m64 72h16v120h-16z"/><path d="m64 208h16v16h-16z"/></g></g></svg>