<svg id="Capa_1" enable-background="new 0 0 512 512" height="512" viewBox="0 0 512 512" width="512" xmlns="http://www.w3.org/2000/svg"><path d="m512 45c0-24.853-20.147-45-45-45h-422c-24.853 0-45 20.147-45 45v90l10 10h492c3.905-3.905 6.095-6.095 10-10z" fill="#0052c2"/><path d="m512 45v90c-3.91 3.91-6.09 6.09-10 10h-246v-145h211c24.85 0 45 20.15 45 45z" fill="#003481"/><path d="m436 60h-90c-8.284 0-15 6.716-15 15s6.716 15 15 15h90c8.284 0 15-6.716 15-15s-6.716-15-15-15z" fill="#0052c2"/><circle cx="196" cy="75" fill="#f03800" r="15"/><circle cx="136" cy="75" fill="#fdbf00" r="15"/><circle cx="76" cy="75" fill="#37d742" r="15"/><path d="m0 135v302c0 24.813 20.187 45 45 45h422c24.813 0 45-20.187 45-45v-302z" fill="#e0f4ff"/><path d="m512 135v302c0 24.81-20.19 45-45 45h-211v-347z" fill="#b8e0f5"/><path d="m169.638 180.448c-8.038-2.008-16.181 2.877-18.19 10.914l-6.776 27.104-11.191-16.786c-5.934-8.901-19.032-8.894-24.962 0l-11.191 16.786-6.776-27.104c-2.009-8.037-10.155-12.93-18.19-10.914-8.037 2.009-12.923 10.153-10.914 18.189l15 60c1.44 5.761 6.142 10.129 11.992 11.143 5.851 1.008 11.747-1.521 15.041-6.46l17.519-26.278 17.519 26.278c3.26 4.89 9.121 7.48 15.041 6.46 5.85-1.014 10.552-5.382 11.992-11.143l15-60c2.01-8.035-2.877-16.18-10.914-18.189z" fill="#00b8f0"/><path d="m304.638 180.448c-8.038-2.008-16.181 2.877-18.19 10.914l-6.776 27.104-11.191-16.786c-5.934-8.901-19.032-8.894-24.962 0l-11.191 16.786-6.776-27.104c-2.01-8.037-10.153-12.93-18.19-10.914-8.037 2.009-12.923 10.153-10.914 18.189l15 60c1.44 5.761 6.142 10.129 11.992 11.143 5.85 1.008 11.748-1.521 15.041-6.46l17.519-26.278 17.519 26.278c3.26 4.89 9.121 7.48 15.041 6.46 5.85-1.014 10.552-5.382 11.992-11.143l15-60c2.01-8.035-2.877-16.18-10.914-18.189z" fill="#00b8f0"/><path d="m315.55 198.64-15 60c-1.44 5.76-6.14 10.13-11.99 11.14-5.92 1.02-11.78-1.57-15.04-6.46l-17.52-26.28v-42.03c4.76 0 9.52 2.22 12.48 6.67l11.19 16.79 6.78-27.11c2.01-8.03 10.15-12.92 18.19-10.91 8.03 2.01 12.92 10.15 10.91 18.19z" fill="#0097f0"/><path d="m439.638 180.448c-8.038-2.008-16.181 2.877-18.19 10.914l-6.776 27.104-11.191-16.786c-2.782-4.173-7.466-6.68-12.481-6.68s-9.699 2.507-12.481 6.68l-11.191 16.786-6.776-27.104c-2.009-8.037-10.154-12.93-18.19-10.914-8.037 2.009-12.923 10.153-10.914 18.189l15 60c1.44 5.761 6.142 10.129 11.992 11.143 5.849 1.008 11.748-1.521 15.041-6.46l17.519-26.278 17.519 26.278c2.812 4.218 7.521 6.681 12.479 6.681 6.864 0 12.881-4.667 14.555-11.363l15-60c2.009-8.036-2.878-16.181-10.915-18.19z" fill="#0097f0"/><circle cx="256" cy="407" fill="#37d742" r="105"/><path d="m361 407c0 57.9-47.1 105-105 105v-210c57.9 0 105 47.1 105 105z" fill="#16a659"/><path d="m302.606 381.394c-5.857-5.857-15.355-5.857-21.213 0l-37.393 37.393-14.394-14.394c-5.857-5.857-15.355-5.857-21.213 0s-5.858 15.355 0 21.213l25 25c2.929 2.929 6.768 4.394 10.607 4.394s7.678-1.465 10.606-4.394l48-48c5.858-5.857 5.858-15.355 0-21.212z" fill="#e0f4ff"/><path d="m302.61 402.61-46.61 46.61v-42.43l25.39-25.4c5.86-5.85 15.36-5.85 21.22 0 5.85 5.86 5.85 15.36 0 21.22z" fill="#b8e0f5"/></svg>