<svg xmlns="http://www.w3.org/2000/svg" width="182" height="133" fill="none" viewBox="0 0 182 133"><rect width="180.364" height="132" x=".5" y=".5" fill="#fff" stroke="#E2E6EF" rx="4.5"/><rect width="55.632" height="51.87" x="21.659" y="34.248" fill="#E2E6EF" rx="5"/><rect width="25.265" height="10.882" x="89.883" y="35.178" fill="#E2E6EF" rx="5.441"/><rect width="69.82" height="10.882" x="89.883" y="51.961" fill="#E2E6EF" rx="5.441"/><rect width="69.82" height="10.882" x="89.883" y="69.251" fill="#E2E6EF" rx="5.441"/><path fill="#3291E9" d="M89.8833 93.3116C89.8833 90.3066 92.3193 87.8707 95.3242 87.8707H109.707C112.712 87.8707 115.148 90.3066 115.148 93.3116V93.3116C115.148 96.3165 112.712 98.7525 109.707 98.7525H95.3242C92.3193 98.7525 89.8833 96.3165 89.8833 93.3116V93.3116Z"/><path stroke="#3291E9" d="M123.249 88.3707H137.632C140.361 88.3707 142.573 90.5828 142.573 93.3116C142.573 96.0404 140.361 98.2525 137.632 98.2525H123.249C120.52 98.2525 118.308 96.0404 118.308 93.3116C118.308 90.5828 120.52 88.3707 123.249 88.3707Z"/></svg>