<svg id="Capa_1" enable-background="new 0 0 512 512" height="512" viewBox="0 0 512 512" width="512" xmlns="http://www.w3.org/2000/svg" xmlns:xlink="http://www.w3.org/1999/xlink"><linearGradient id="SVGID_1_" gradientUnits="userSpaceOnUse" x1="293.5" x2="293.5" y1="512" y2="0"><stop offset="0" stop-color="#fd3a84"/><stop offset="1" stop-color="#ffa68d"/></linearGradient><linearGradient id="SVGID_2_" gradientUnits="userSpaceOnUse" x1="165.5" x2="165.5" y1="512" y2="0"><stop offset="0" stop-color="#ffc2cc"/><stop offset="1" stop-color="#fff2f4"/></linearGradient><g><g><g><path d="m447.605 146.605 60-60c5.859-5.859 5.859-15.352 0-21.211l-60-61c-2.812-2.812-6.621-4.394-10.605-4.394h-362v151h362c3.984 0 7.793-1.582 10.605-4.395zm0 38.79c-2.812-2.813-6.621-4.395-10.605-4.395h-362v150h362c3.984 0 7.793-1.582 10.605-4.395l60-60c5.859-5.859 5.859-15.352 0-21.211zm0 180c-2.812-2.813-6.621-4.395-10.605-4.395h-362v151h362c3.984 0 7.793-1.582 10.605-4.395l60-61c5.859-5.859 5.859-15.352 0-21.211z" fill="url(#SVGID_1_)"/></g></g><g><g><path d="m75 181c-41.353 0-75 33.647-75 75s33.647 75 75 75 75-33.647 75-75-33.647-75-75-75zm0 180c-41.353 0-75 33.647-75 75s33.647 76 75 76 75-34.647 75-76-33.647-75-75-75zm181-270h60c8.291 0 15-6.709 15-15s-6.709-15-15-15h-60c-8.291 0-15 6.709-15 15s6.709 15 15 15zm60 150h-60c-8.291 0-15 6.709-15 15s6.709 15 15 15h60c8.291 0 15-6.709 15-15s-6.709-15-15-15zm-241-241c-41.353 0-75 34.647-75 76s33.647 75 75 75 75-33.647 75-75-33.647-76-75-76zm241 421h-60c-8.291 0-15 6.709-15 15s6.709 15 15 15h60c8.291 0 15-6.709 15-15s-6.709-15-15-15z" fill="url(#SVGID_2_)"/></g></g></g></svg>