<svg height="512" viewBox="0 0 60 60" width="512" xmlns="http://www.w3.org/2000/svg"><g id="Page-1" fill="none" fill-rule="evenodd"><g id="016---Searching-Messages"><g id="Icons_copy_2" transform="translate(1)"><path id="Path" d="m48 25c0 13.254834-10.745166 24-24 24s-24-10.745166-24-24 10.745166-24 24-24c6.3815534-.05385566 12.5173885 2.45741072 17.0299889 6.97001112 4.5126004 4.51260038 7.0238668 10.64843548 6.9700111 17.02998888z" fill="#a4c2f7"/><path id="Path" d="m24 1c-.5 0-1 .021-1.5.051 12.6638149.77459007 22.5357484 11.2742847 22.5291265 23.9617649-.0066218 12.6874803-9.8895099 23.1768645-22.5541265 23.9382351.5.031 1.012.053 1.525.053 13.2559386 0 24.002-10.7460614 24.002-24.002s-10.7460614-24.002-24.002-24.002z" fill="#7facfa"/><circle id="Oval" cx="24" cy="25" fill="#e8edfc" r="20"/><path id="Path" d="m24 5c-.506 0-1 .039-1.5.076 10.4305847.7755615 18.4975598 9.4646218 18.4975598 19.924s-8.0669751 19.1484385-18.4975598 19.924c.5.037.994.076 1.5.076 11.045695 0 20-8.954305 20-20s-8.954305-20-20-20z" fill="#cad9fc"/><path id="Path" d="m57.12 58.12c-.5617198.5632738-1.3245087.8798486-2.12.8798486s-1.5582802-.3165748-2.12-.8798486l-10.17-10.17 4.24-4.24 10.17 10.17c1.1698135 1.1712702 1.1698135 3.0687298 0 4.24z" fill="#c6d8fb"/><path id="Path" d="m57.12 53.88-10.17-10.17-1.5 1.5 8.67 8.67c1.1698135 1.1712702 1.1698135 3.0687298 0 4.24-.1846706.182903-.393227.3399931-.62.467 1.3007413.7557073 2.9602632.4288965 3.8773495-.763569.9170863-1.1924656.8069396-2.8802706-.2573495-3.943431z" fill="#a4c3fd"/><path id="Path" d="m47.64 43.01-.21.21-.48.49-4.24 4.24-.49.48-.21.21c-.4806326.4801378-1.2593674.4801378-1.74 0l-3.4-3.39c2.9748116-1.8848182 5.4951818-4.4051884 7.38-7.38l3.39 3.4c.4801378.4806326.4801378 1.2593674 0 1.74z" fill="#7facfa"/><path id="Path" d="m36 16v14c0 1.6568542-1.3431458 3-3 3h-11.783c-.1431482.0002518-.2846076.0309298-.415.09l-5.831 2.658c-.6193937.3439751-1.3745466.3345816-1.9851924-.0246944-.6106458-.3592759-.9856399-1.014809-.9858076-1.7233056v-18c0-1.6568542 1.3431458-3 3-3h18c1.6568542 0 3 1.3431458 3 3z" fill="#e8edfc"/><path id="Path" d="m33 13h-3c1.6568542 0 3 1.3431458 3 3v14c0 1.6568542-1.3431458 3-3 3h3c1.6568542 0 3-1.3431458 3-3v-14c0-1.6568542-1.3431458-3-3-3z" fill="#cad9fc"/></g><g id="Icons_copy" fill="#fff" transform="translate(1 1)"><path id="Path" d="m22.476 47.947c.5.031 1.012.053 1.524.053.5 0 .987-.024 1.475-.053-12.6269295-.8229322-22.44576538-11.3080022-22.43916114-23.961718.00660423-12.6537157 9.83637954-23.12853077 22.46416114-23.938282-.5-.026-1-.047-1.5-.047-12.9313207.03698174-23.50843187 10.3125983-23.91924935 23.2374446-.41081749 12.9248463 9.49237962 23.8514314 22.39524935 24.7095554z"/></g><g id="Icons"><path id="Path" d="m1.394 16.824 1.89.655c-.82444923 2.4229658-1.25787427 4.9617428-1.284 7.521h-2c.02616082-2.7821913.4967612-5.5423266 1.394-8.176z" fill="#fff"/><g fill="#428dff"><path id="Path" d="m1.375 22.014c-.55228475.0027614-1.00223858-.4427153-1.005-.995s.44271525-1.0022386.995-1.005h.01c.55228475 0 1 .4477153 1 1s-.44771525 1-1 1z"/><path id="Shape" d="m0 25c-.00566363 8.9788389 4.8071759 17.2702024 12.6067439 21.7183838 7.7995681 4.4481815 17.3862184 4.3690092 25.1112561-.2073838l2.844 2.837c.8669911.8653298 2.2695183.8697936 3.142.01l9.463 9.463c.7485584.7536259 1.7665431 1.1779353 2.8287533 1.1790613 1.0622101.001126 2.0810922-.4210241 2.8312467-1.1730613 1.5601953-1.5617701 1.5601953-4.0922299 0-5.654l-9.469-9.473c.860107-.8715759.8556409-2.2739201-.01-3.14l-2.837-2.845c4.5748348-7.7248666 4.6531646-17.3103998.2051826-25.1089979-4.4479821-7.79859806-12.7382847-12.61102637-21.7161826-12.6060021-2.5800014.0351011-5.1420599.43506503-7.61 1.188-2.4535168.80204197-4.7722029 1.9691387-6.878 3.462-2.10898591 1.48797928-3.96586661 3.30434622-5.5 5.38-1.56638156 2.0532102-2.78771932 4.3479472-3.616 6.794-.10178187.2510579-.09202696.5335494.02683071.7769882s.3356084.4248658.59616929.4990118c.51782563.146501 1.06292332-.1202306 1.265-.619.76025631-2.2511472 1.88376837-4.3627148 3.326-6.251 1.4109642-1.91169178 3.12050518-3.5837532 5.063-4.952 1.9377832-1.37221718 4.0705364-2.44584113 6.327-3.185 2.2709024-.68917508 4.6270968-1.057078 7-1.093 9.3026316 0 17.6892662 5.60377009 21.2492292 14.1982811 3.5599631 8.5945109 1.5921807 18.487221-4.9857732 25.0651749s-16.470664 8.5457363-25.0651749 4.9857732c-8.59451101-3.559963-14.1982811-11.9465976-14.1982811-21.2492292 0-.5522847-.44771525-1-1-1s-1 .4477153-1 1zm57.407 32.419c-.7900805.7531308-2.0331314.750486-2.82-.006l-9.468-9.468 2.826-2.826 9.468 9.468c.375373.3760134.5857027.8859355.584577 1.4172449s-.2136141 1.0403356-.590577 1.4147551zm-12.007-17.987 2.538 2.546c.0414877.0435432.0638156.1018839.062.162.0003086.0615865-.0242024.1207014-.068.164l-5.632 5.63c-.0374641.0531783-.0984501.0848143-.1635.0848143s-.1260359-.031636-.1635-.0848143l-2.542-2.534c2.3108264-1.6398595 4.3287534-3.6574483 5.969-5.968z" fill-rule="nonzero"/><path id="Shape" d="m25 46c11.5979797 0 21-9.4020203 21-21s-9.4020203-21-21-21-21 9.4020203-21 21c.01322591 11.592497 9.407503 20.9867741 21 21zm0-40c10.4934102 0 19 8.5065898 19 19s-8.5065898 19-19 19-19-8.5065898-19-19c.0115735-10.4886126 8.5113874-18.9884265 19-19z" fill-rule="nonzero"/><path id="Shape" d="m13.479 36.585c.4657621.27663.9972827.4230658 1.539.424.4786908.0018021.9499119-.1186708 1.369-.35l5.83-2.659h11.783c2.209139 0 4-1.790861 4-4v-14c0-2.209139-1.790861-4-4-4h-18c-2.209139 0-4 1.790861-4 4v18c-.0056527 1.0643924.5585358 2.0504826 1.479 2.585zm.521-20.585c0-1.1045695.8954305-2 2-2h18c1.1045695 0 2 .8954305 2 2v14c0 1.1045695-.8954305 2-2 2h-11.783c-.2860986.0003449-.5687934.0620672-.829.181l-5.9 2.694c-.3100221.173332-.6887217.1692083-.9948959-.0108337-.3061741-.1800419-.4938705-.5089803-.4931041-.8641663z" fill-rule="nonzero"/><path id="Path" d="m17 19h16c.5522847 0 1-.4477153 1-1s-.4477153-1-1-1h-16c-.5522847 0-1 .4477153-1 1s.4477153 1 1 1z"/><path id="Path" d="m17 24h16c.5522847 0 1-.4477153 1-1s-.4477153-1-1-1h-16c-.5522847 0-1 .4477153-1 1s.4477153 1 1 1z"/><path id="Path" d="m17 29h16c.5522847 0 1-.4477153 1-1s-.4477153-1-1-1h-16c-.5522847 0-1 .4477153-1 1s.4477153 1 1 1z"/></g></g></g></g></svg>