<?xml version="1.0" encoding="iso-8859-1"?>
<!-- Generator: Adobe Illustrator 19.0.0, SVG Export Plug-In . SVG Version: 6.00 Build 0)  -->
<svg version="1.1" id="Capa_1" xmlns="http://www.w3.org/2000/svg" xmlns:xlink="http://www.w3.org/1999/xlink" x="0px" y="0px"
	 viewBox="0 0 512 512" style="enable-background:new 0 0 512 512;" xml:space="preserve">
<polygon style="fill:#FF738E;" points="512,296.551 477.853,328.087 486.947,373.67 444.726,393.11 439.273,439.273 393.11,444.726 
	373.67,486.947 328.087,477.853 296.551,512 256,489.278 255.11,489.779 215.449,512 183.913,477.853 138.33,486.947 
	118.89,444.726 72.727,439.273 67.274,393.11 25.063,373.67 34.147,328.087 0,296.551 22.732,256 0,215.449 34.147,183.913 
	25.063,138.33 67.274,118.89 72.727,72.727 118.89,67.274 138.33,25.053 183.913,34.147 215.449,0 255.11,22.221 256,22.722 
	296.551,0 328.087,34.147 373.67,25.053 393.11,67.274 439.273,72.727 444.726,118.89 486.947,138.33 477.853,183.913 512,215.449 
	489.278,256 "/>
<polygon style="fill:#FF3B62;" points="512,296.551 477.853,328.087 486.947,373.67 444.726,393.11 439.273,439.273 393.11,444.726 
	373.67,486.947 328.087,477.853 296.551,512 256,489.278 255.11,489.779 255.11,22.221 256,22.722 296.551,0 328.087,34.147 
	373.67,25.053 393.11,67.274 439.273,72.727 444.726,118.89 486.947,138.33 477.853,183.913 512,215.449 489.278,256 "/>
<g>
	<path style="fill:#F0E7DF;" d="M123.31,251.473v48.543H96.188v-98.754h21.142l39.641,50.212v-50.212h27.122v98.754h-21.559
		L123.31,251.473z"/>
	<path style="fill:#F0E7DF;" d="M228.186,276.37v-15.578h35.888v-21.981h-35.888v-13.907h42.001v-23.642h-69.125v98.75h70.376
		V276.37L228.186,276.37L228.186,276.37z"/>
</g>
<g>
	<path style="fill:#DFCDBD;" d="M315.53,201.26h24.898l8.623,30.46l8.763-30.46h24.898l-16.274,47.152l7.094,20.584l21.282-67.736
		H424.3l-38.667,98.754H363.1l-14.048-35.33l-13.908,35.33h-22.532l-38.668-98.754h29.348l21.42,67.736l6.814-20.584L315.53,201.26z
		"/>
	<rect x="255.11" y="238.811" style="fill:#DFCDBD;" width="8.965" height="21.981"/>
	<rect x="255.11" y="201.262" style="fill:#DFCDBD;" width="15.078" height="23.642"/>
	<rect x="255.11" y="276.37" style="fill:#DFCDBD;" width="16.328" height="23.642"/>
</g>
<g>
</g>
<g>
</g>
<g>
</g>
<g>
</g>
<g>
</g>
<g>
</g>
<g>
</g>
<g>
</g>
<g>
</g>
<g>
</g>
<g>
</g>
<g>
</g>
<g>
</g>
<g>
</g>
<g>
</g>
</svg>
