<svg height="512pt" viewBox="-66 0 512 512" width="512pt" xmlns="http://www.w3.org/2000/svg"><path d="m320 452h-320v-452h320zm0 0" fill="#e4f7ff"/><path d="m320 452h-145v-452h145zm0 0" fill="#cbedfd"/><path d="m320 257h-320v-257h320zm0 0" fill="#e8596e"/><path d="m320 257h-145v-257h145zm0 0" fill="#db2e44"/><path d="m380 512h-320v-30h290v-422h30zm0 0" fill="#a9e1fa"/><path d="m60 367h170v30h-170zm0 0" fill="#cbedfd"/><path d="m60 307h200v30h-200zm0 0" fill="#cbedfd"/><path d="m234.601562 188.886719-28.285156-28.285157 21.210938-21.210937-21.210938-21.214844-21.214844 21.214844-78.488281-78.492187-21.214843 21.214843 78.492187 78.488281-21.214844 21.214844 21.214844 21.210938 21.210937-21.210938 28.285157 28.285156zm0 0" fill="#fdda40"/><path d="m206.316406 160.601562 21.210938-21.210937-21.210938-21.214844-21.214844 21.214844-10.101562-10.105469v62.632813l10.101562-10.101563 28.285157 28.285156 21.214843-21.214843zm0 0" fill="#fda916"/><path d="m175 367h55v30h-55zm0 0" fill="#a9e1fa"/><path d="m175 307h85v30h-85zm0 0" fill="#a9e1fa"/><path d="m350 60v422h-175v30h205v-452zm0 0" fill="#84d4f0"/></svg>