<svg id="Capa_1" enable-background="new 0 0 507.812 507.812" height="512" viewBox="0 0 507.812 507.812" width="512" xmlns="http://www.w3.org/2000/svg"><g><path d="m115.947 507.45c44.121-19.485 90.537-29.365 137.959-29.365l19-14.178-19-15.822c-51.621 0-102.115 10.74-150.078 31.922z" fill="#ffb54c"/><path d="m391.865 507.45 12.119-27.443c-47.963-21.182-98.456-31.922-150.078-31.922v30c47.422-.001 93.838 9.879 137.959 29.365z" fill="#ff9368"/><path d="m115.947.363-12.119 27.443c47.963 21.182 98.456 31.922 150.078 31.922l16-12.822-16-17.178c-47.422 0-93.838-9.88-137.959-29.365z" fill="#ffb54c"/><path d="m391.865.363c-44.121 19.485-90.537 29.365-137.959 29.365v30c51.621 0 102.115-10.74 150.078-31.922z" fill="#ff9368"/><path d="m31.352 56.185-31.352-13.846 11.101 32.426c19.652 57.405 29.616 117.677 29.616 179.142 0 61.463-9.964 121.735-29.616 179.142l-11.101 32.425 31.352-13.846c9.56-4.222 19.189-8.155 28.879-11.817l142.028-65.654 51.648 4.098 33-138.349-33-136.356c-76.511 0-151.389-15.936-222.555-47.365z" fill="#80bfff"/><path d="m467.096 253.906c0-61.463 9.964-121.735 29.616-179.142l11.101-32.425-31.352 13.846c-71.166 31.429-146.044 47.365-222.555 47.365v274.705l81.569 6.471 122.403 59.096c6.22 2.49 12.417 5.082 18.582 7.805l31.352 13.846-11.101-32.426c-19.651-57.404-29.615-117.676-29.615-179.141z" fill="#69f"/><path d="m220.883 379.094 123.402 32.711c38.614 6.5 76.572 17.198 113.593 32.017l-145.303-175.431z" fill="#ff7d43"/><circle cx="362.906" cy="185.906" fill="#ff7d43" r="45"/><path d="m212.379 229.299-152.149 210.512c62.437-23.597 127.444-35.549 193.676-35.549l20-50.356-20-67.15z" fill="#ffb54c"/><path d="m253.906 286.756v117.506c30.429 0 60.598 2.53 90.379 7.543z" fill="#ff9368"/></g></svg>