<svg id="Layer_1" enable-background="new 0 0 512 512" height="512" viewBox="0 0 512 512" width="512" xmlns="http://www.w3.org/2000/svg"><g><g><path d="m480.934 238.867h-160.667c-17.454 0-31.066-14.226-31.066-31.067 0-61.514 49.767-111.4 111.4-111.4 61.514 0 111.4 49.767 111.4 111.4-.001 17.125-13.941 31.067-31.067 31.067z" fill="#ffc700"/><circle cx="400.6" cy="48.2" fill="#ae5134" r="48.2"/><path d="m400.6 0c26.578 0 48.2 21.623 48.2 48.2s-21.623 48.2-48.2 48.2z" fill="#8d3929"/><path d="m480.934 238.867c17.127 0 31.066-13.942 31.066-31.067 0-61.633-49.886-111.4-111.4-111.4v142.467z" fill="#ffa800"/></g><circle cx="256" cy="256" fill="#008ef7" r="175.667"/><path d="m256 431.667c97.018 0 175.667-78.649 175.667-175.667s-78.649-175.667-175.667-175.667z" fill="#0062ef"/><path d="m327.275 176.733h50.877c-16.808-25.813-41.569-45.991-70.781-57.037 2.838 5.234 5.51 10.948 7.99 17.148 4.801 12.002 8.794 25.435 11.914 39.889z" fill="#008ef7"/><path d="m393.084 206.733h-60.777c1.949 15.795 2.96 32.357 2.96 49.267s-1.011 33.472-2.96 49.267h60.777c5.55-15.395 8.583-31.983 8.583-49.267s-3.033-33.871-8.583-49.267z" fill="#008ef7"/><path d="m315.361 375.156c-2.48 6.2-5.153 11.914-7.99 17.148 29.213-11.046 53.973-31.224 70.781-57.037h-50.877c-3.12 14.454-7.113 27.887-11.914 39.889z" fill="#008ef7"/><g fill="#00b9ff"><path d="m133.848 176.733h50.877c3.119-14.455 7.113-27.888 11.914-39.89 2.48-6.2 5.153-11.914 7.99-17.148-29.212 11.048-53.973 31.225-70.781 57.038z"/><path d="m176.733 256c0-16.91 1.011-33.472 2.96-49.267h-60.777c-5.55 15.395-8.583 31.983-8.583 49.267s3.033 33.871 8.583 49.267h60.777c-1.948-15.795-2.96-32.357-2.96-49.267z"/><path d="m184.725 335.267h-50.877c16.808 25.813 41.569 45.991 70.781 57.037-2.838-5.234-5.51-10.948-7.99-17.148-4.801-12.002-8.794-25.435-11.914-39.889z"/><path d="m296.484 176.733c-10.196-41.95-27.299-66.4-40.484-66.4s-30.288 24.45-40.484 66.4z"/><path d="m215.516 335.267c10.196 41.95 27.299 66.4 40.484 66.4s30.288-24.45 40.484-66.4z"/><path d="m206.733 256c0 17.775 1.169 34.259 3.195 49.267h92.144c2.026-15.007 3.195-31.492 3.195-49.267s-1.169-34.259-3.195-49.267h-92.144c-2.026 15.008-3.195 31.492-3.195 49.267z"/></g><g><path d="m191.733 512h-160.667c-17.454 0-31.066-14.226-31.066-31.067 0-61.514 49.767-111.4 111.4-111.4 61.514 0 111.4 49.767 111.4 111.4 0 17.125-13.94 31.067-31.067 31.067z" fill="#fff5f0"/><circle cx="111.4" cy="321.333" fill="#ffcfc8" r="48.2"/><path d="m111.4 273.133c26.578 0 48.2 21.623 48.2 48.2 0 26.578-21.623 48.2-48.2 48.2z" fill="#feb6b4"/><path d="m191.733 512c17.127 0 31.066-13.942 31.066-31.067 0-61.633-49.886-111.4-111.4-111.4v142.467z" fill="#fdebe1"/></g><path d="m256 401.667c13.185 0 30.288-24.45 40.484-66.4h-40.484z" fill="#008ef7"/><path d="m256 206.733v98.533h46.072c2.026-15.007 3.195-31.492 3.195-49.267s-1.169-34.259-3.195-49.267h-46.072z" fill="#008ef7"/><path d="m296.484 176.733c-10.196-41.95-27.299-66.4-40.484-66.4v66.4z" fill="#008ef7"/></g></svg>